<svg width="740" height="198" viewBox="0 0 740 198" fill="none" xmlns="http://www.w3.org/2000/svg">
<g clip-path="url(#clip0)">
<path d="M198.874 17.7271H187.157H182.391H165.113V12.3105C165.113 5.41661 160.744 0 155.184 0C149.623 0 145.254 5.41661 145.254 12.3105V17.7271H101.564V12.3105C101.564 5.41661 97.1946 0 91.634 0C86.0734 0 81.7044 5.41661 81.7044 12.3105V17.7271H47.9436C43.5746 17.7271 39.9999 22.6513 39.9999 27.8217V186.873C39.9999 192.536 43.5746 197.46 47.9436 197.46H198.874C203.243 197.46 206.818 192.536 206.818 187.119V27.8217C206.818 22.6513 203.243 17.7271 198.874 17.7271ZM190.93 177.763H55.8873V37.4238H81.7044V43.5791C81.7044 50.4729 86.0734 55.8896 91.634 55.8896C97.1946 55.8896 101.564 50.4729 101.564 43.5791V37.4238H145.254V43.5791C145.254 50.4729 149.623 55.8896 155.184 55.8896C160.744 55.8896 165.113 50.4729 165.113 43.5791V37.4238H182.391H187.157H190.93V177.763Z" fill="#D4B092"/>
<path d="M165.51 84.2036H115.068C110.699 84.2036 107.124 88.6354 107.124 94.052C107.124 99.4686 110.699 103.9 115.068 103.9H165.709C170.078 103.9 173.653 99.4686 173.653 94.052C173.653 88.6354 170.078 84.2036 165.51 84.2036Z" fill="#D4B092"/>
<path d="M165.51 128.521H115.068C110.699 128.521 107.124 132.953 107.124 138.37C107.124 143.786 110.699 148.218 115.068 148.218H165.709C170.078 148.218 173.653 143.786 173.653 138.37C173.653 132.953 170.078 128.521 165.51 128.521Z" fill="#D4B092"/>
<path d="M92.0312 84.2036H81.1086C76.7395 84.2036 73.1649 88.6354 73.1649 94.052C73.1649 99.4686 76.7395 103.9 81.1086 103.9H92.0312C96.4002 103.9 99.9749 99.4686 99.9749 94.052C99.9749 88.6354 96.5988 84.2036 92.0312 84.2036Z" fill="#D4B092"/>
<path d="M92.0312 128.521H81.1086C76.7395 128.521 73.1649 132.953 73.1649 138.37C73.1649 143.786 76.7395 148.218 81.1086 148.218H92.0312C96.4002 148.218 99.9749 143.786 99.9749 138.37C99.9749 132.953 96.5988 128.521 92.0312 128.521Z" fill="#D4B092"/>
<path d="M247.872 71.5873C248.496 71.0593 249.156 70.7232 249.852 70.5792C250.548 70.4352 251.208 70.3632 251.832 70.3632H262.705C263.569 70.3632 264.313 70.5192 264.937 70.8313C265.561 71.1433 266.09 71.5633 266.522 72.0914C266.954 72.6194 267.302 73.2195 267.566 73.8916C267.83 74.5636 268.082 75.2597 268.322 75.9798L270.554 85.1967C271.274 83.7085 272.318 82.0164 273.686 80.1202C275.054 78.224 276.795 76.4478 278.907 74.7916C281.019 73.1355 283.527 71.7433 286.432 70.6152C289.336 69.4871 292.708 68.9231 296.549 68.9231C302.021 68.9231 306.99 69.9792 311.454 72.0914C315.919 74.2036 319.723 77.0839 322.868 80.7322C326.012 84.3806 328.448 88.641 330.176 93.5135C331.905 98.386 332.769 103.582 332.769 109.103V156.268C332.769 158.092 332.373 159.472 331.58 160.408C330.788 161.344 329.528 161.812 327.8 161.812H311.166C309.102 161.812 307.686 161.464 306.918 160.768C306.15 160.072 305.766 158.716 305.766 156.7V109.823C305.766 107.759 305.298 105.803 304.362 103.955C303.425 102.106 302.189 100.474 300.653 99.058C299.117 97.6419 297.377 96.5258 295.433 95.7097C293.488 94.8936 291.508 94.4856 289.492 94.4856C287.764 94.4856 286 94.8696 284.199 95.6377C282.399 96.4058 280.743 97.4739 279.231 98.842C277.719 100.21 276.447 101.818 275.415 103.666C274.382 105.515 273.794 107.519 273.65 109.679V156.484C273.65 157.3 273.494 158.116 273.182 158.932C272.87 159.748 272.402 160.372 271.778 160.804C271.154 161.188 270.566 161.452 270.014 161.596C269.462 161.74 268.826 161.812 268.106 161.812H251.832C249.768 161.812 248.28 161.308 247.368 160.3C246.455 159.292 245.999 157.948 245.999 156.268V75.6917C245.999 74.7796 246.203 73.9396 246.611 73.1715C247.019 72.4034 247.584 71.8034 248.304 71.3713L247.872 71.5873ZM349.978 75.9798C349.978 74.4436 350.41 73.1235 351.275 72.0194C352.139 70.9153 353.483 70.3632 355.307 70.3632H371.797C372.373 70.3632 372.997 70.4952 373.669 70.7592C374.341 71.0233 374.965 71.4073 375.541 71.9114C376.117 72.4154 376.609 73.0035 377.017 73.6755C377.425 74.3476 377.629 75.1157 377.629 75.9798V156.268C377.629 158.092 377.125 159.472 376.117 160.408C375.109 161.344 373.669 161.812 371.797 161.812H355.307C351.755 161.812 349.978 159.964 349.978 156.268V75.9798V75.9798ZM349.978 39.5442C349.978 37.528 350.41 36.0998 351.275 35.2598C352.139 34.4197 353.483 33.9996 355.307 33.9996H372.013C373.693 33.9996 375.049 34.4197 376.081 35.2598C377.113 36.0998 377.629 37.528 377.629 39.5442V53.5856C377.629 54.1616 377.497 54.7857 377.233 55.4577C376.969 56.1298 376.597 56.7779 376.117 57.4019C375.637 58.026 375.049 58.542 374.353 58.9501C373.657 59.3581 372.877 59.5622 372.013 59.5622H355.307C351.755 59.5622 349.978 57.57 349.978 53.5856V39.5442V39.5442ZM396.783 71.5873C397.407 71.0593 398.068 70.7232 398.764 70.5792C399.46 70.4352 400.12 70.3632 400.744 70.3632H411.617C412.481 70.3632 413.225 70.5192 413.849 70.8313C414.473 71.1433 415.001 71.5633 415.433 72.0914C415.865 72.6194 416.213 73.2195 416.478 73.8916C416.742 74.5636 416.994 75.2597 417.234 75.9798L419.466 85.1967C420.186 83.7085 421.23 82.0164 422.598 80.1202C423.966 78.224 425.706 76.4478 427.819 74.7916C429.931 73.1355 432.439 71.7433 435.344 70.6152C438.248 69.4871 441.62 68.9231 445.461 68.9231C450.933 68.9231 455.902 69.9792 460.366 72.0914C464.831 74.2036 468.635 77.0839 471.779 80.7322C474.924 84.3806 477.36 88.641 479.088 93.5135C480.816 98.386 481.68 103.582 481.68 109.103V156.268C481.68 158.092 481.284 159.472 480.492 160.408C479.7 161.344 478.44 161.812 476.712 161.812H460.078C458.014 161.812 456.598 161.464 455.83 160.768C455.062 160.072 454.678 158.716 454.678 156.7V109.823C454.678 107.759 454.21 105.803 453.273 103.955C452.337 102.106 451.101 100.474 449.565 99.058C448.029 97.6419 446.289 96.5258 444.344 95.7097C442.4 94.8936 440.42 94.4856 438.404 94.4856C436.676 94.4856 434.911 94.8696 433.111 95.6377C431.311 96.4058 429.655 97.4739 428.143 98.842C426.631 100.21 425.358 101.818 424.326 103.666C423.294 105.515 422.706 107.519 422.562 109.679V156.484C422.562 157.3 422.406 158.116 422.094 158.932C421.782 159.748 421.314 160.372 420.69 160.804C420.066 161.188 419.478 161.452 418.926 161.596C418.374 161.74 417.738 161.812 417.018 161.812H400.744C398.68 161.812 397.191 161.308 396.279 160.3C395.367 159.292 394.911 157.948 394.911 156.268V75.6917C394.911 74.7796 395.115 73.9396 395.523 73.1715C395.931 72.4034 396.495 71.8034 397.215 71.3713L396.783 71.5873ZM500.834 71.5873C501.459 71.0593 502.119 70.7232 502.815 70.5792C503.511 70.4352 504.171 70.3632 504.795 70.3632H515.668C516.532 70.3632 517.276 70.5192 517.9 70.8313C518.524 71.1433 519.052 71.5633 519.484 72.0914C519.917 72.6194 520.265 73.2195 520.529 73.8916C520.793 74.5636 521.045 75.2597 521.285 75.9798L523.517 85.1967C524.237 83.7085 525.113 82.0164 526.145 80.1202C527.177 78.224 528.545 76.4478 530.25 74.7916C531.954 73.1355 534.09 71.7433 536.658 70.6152C539.227 69.4871 542.431 68.9231 546.271 68.9231C552.416 68.9231 557.793 70.2312 562.401 72.8475C567.01 75.4637 570.802 78.9801 573.778 83.3965C574.69 81.9083 575.938 80.3122 577.523 78.608C579.107 76.9039 581.003 75.3317 583.211 73.8916C585.419 72.4514 587.952 71.2633 590.808 70.3272C593.664 69.3911 596.821 68.9231 600.277 68.9231C605.75 68.9231 610.634 69.9792 614.931 72.0914C619.227 74.2036 622.875 77.0839 625.876 80.7322C628.876 84.3806 631.156 88.641 632.716 93.5135C634.277 98.386 635.057 103.582 635.057 109.103V156.268C635.057 158.092 634.661 159.472 633.869 160.408C633.077 161.344 631.816 161.812 630.088 161.812H613.454C611.39 161.812 609.974 161.464 609.206 160.768C608.438 160.072 608.054 158.716 608.054 156.7V109.103C608.054 107.039 607.73 105.119 607.082 103.342C606.434 101.566 605.534 100.018 604.381 98.698C603.229 97.3779 601.825 96.3458 600.169 95.6017C598.513 94.8576 596.677 94.4856 594.66 94.4856C592.836 94.4856 591.108 94.8456 589.476 95.5657C587.844 96.2858 586.404 97.2819 585.155 98.554C583.907 99.8261 582.911 101.362 582.167 103.162C581.423 104.963 581.051 106.943 581.051 109.103V156.268C581.051 158.092 580.655 159.472 579.863 160.408C579.071 161.344 577.811 161.812 576.082 161.812H574.57H573.994H559.449C557.384 161.812 555.968 161.464 555.2 160.768C554.432 160.072 554.048 158.716 554.048 156.7V109.103C554.048 107.039 553.748 105.119 553.148 103.342C552.548 101.566 551.684 100.018 550.556 98.698C549.428 97.3779 548.059 96.3458 546.451 95.6017C544.843 94.8576 543.031 94.4856 541.015 94.4856C539.287 94.4856 537.594 94.8336 535.938 95.5297C534.282 96.2258 532.794 97.2098 531.474 98.482C530.154 99.7541 529.049 101.278 528.161 103.054C527.273 104.831 526.757 106.799 526.613 108.959V156.484C526.613 157.3 526.457 158.116 526.145 158.932C525.833 159.748 525.365 160.372 524.741 160.804C524.117 161.188 523.529 161.452 522.977 161.596C522.425 161.74 521.789 161.812 521.069 161.812H504.795C502.731 161.812 501.243 161.308 500.33 160.3C499.418 159.292 498.962 157.948 498.962 156.268V75.6917C498.962 74.7796 499.166 73.9396 499.574 73.1715C499.982 72.4034 500.546 71.8034 501.267 71.3713L500.834 71.5873ZM737.308 160.588C736.684 161.116 736.024 161.452 735.327 161.596C734.631 161.74 733.971 161.812 733.347 161.812H722.474C721.61 161.812 720.866 161.656 720.242 161.344C719.618 161.032 719.09 160.612 718.658 160.084C718.226 159.556 717.866 158.956 717.578 158.284C717.29 157.612 717.049 156.916 716.857 156.196L714.625 146.979C713.905 148.467 712.861 150.159 711.493 152.055C710.125 153.951 708.385 155.728 706.272 157.384C704.16 159.04 701.64 160.432 698.712 161.56C695.783 162.688 692.423 163.252 688.63 163.252C683.158 163.252 678.189 162.196 673.725 160.084C669.26 157.972 665.456 155.092 662.312 151.443C659.167 147.795 656.731 143.534 655.003 138.662C653.275 133.789 652.411 128.593 652.411 123.072V75.9078C652.411 74.0836 652.807 72.7034 653.599 71.7673C654.391 70.8313 655.651 70.3632 657.379 70.3632H674.013C676.077 70.3632 677.493 70.7112 678.261 71.4073C679.029 72.1034 679.413 73.4595 679.413 75.4757V122.352C679.413 124.417 679.882 126.373 680.818 128.221C681.754 130.069 682.99 131.701 684.526 133.117C686.062 134.534 687.802 135.65 689.747 136.466C691.691 137.282 693.671 137.69 695.687 137.69C697.415 137.69 699.204 137.282 701.052 136.466C702.9 135.65 704.604 134.558 706.164 133.189C707.725 131.821 709.009 130.213 710.017 128.365C711.025 126.517 711.529 124.561 711.529 122.496V75.6917C711.529 74.8757 711.685 74.0596 711.997 73.2435C712.309 72.4274 712.777 71.8034 713.401 71.3713C714.025 70.9873 714.613 70.7232 715.165 70.5792C715.717 70.4352 716.353 70.3632 717.074 70.3632H733.347C735.411 70.3632 736.9 70.8673 737.812 71.8754C738.724 72.8835 739.18 74.2276 739.18 75.9078V156.484C739.18 157.396 738.976 158.236 738.568 159.004C738.16 159.772 737.596 160.372 736.876 160.804L737.308 160.588Z" fill="black"/>
</g>
<defs>
<clipPath id="clip0">
<rect width="739.18" height="197.46" fill="white"/>
</clipPath>
</defs>
</svg>
