<svg width="168" height="199" viewBox="0 0 168 199" fill="none" xmlns="http://www.w3.org/2000/svg">
<path d="M159.874 17.7271H148.157H143.391H126.113V12.3105C126.113 5.41661 121.744 0 116.184 0C110.623 0 106.254 5.41661 106.254 12.3105V17.7271H62.5637V12.3105C62.5637 5.41661 58.1947 0 52.6341 0C47.0735 0 42.7044 5.41661 42.7044 12.3105V17.7271H8.9437C4.57467 17.7271 1 22.6513 1 27.8217V186.873C1 192.536 4.57467 197.46 8.9437 197.46H159.874C164.243 197.46 167.818 192.536 167.818 187.119V27.8217C167.818 22.6513 164.243 17.7271 159.874 17.7271ZM151.93 177.763H16.8874V37.4238H42.7044V43.5791C42.7044 50.4729 47.0735 55.8896 52.6341 55.8896C58.1947 55.8896 62.5637 50.4729 62.5637 43.5791V37.4238H106.254V43.5791C106.254 50.4729 110.623 55.8896 116.184 55.8896C121.744 55.8896 126.113 50.4729 126.113 43.5791V37.4238H143.391H148.157H151.93V177.763Z" fill="#D4B092"/>
<path d="M126.511 84.2036H76.068C71.699 84.2036 68.1243 88.6354 68.1243 94.052C68.1243 99.4686 71.699 103.9 76.068 103.9H126.709C131.078 103.9 134.653 99.4686 134.653 94.052C134.653 88.6354 131.078 84.2036 126.511 84.2036Z" fill="#D4B092"/>
<path d="M126.511 128.521H76.068C71.699 128.521 68.1243 132.953 68.1243 138.37C68.1243 143.786 71.699 148.218 76.068 148.218H126.709C131.078 148.218 134.653 143.786 134.653 138.37C134.653 132.953 131.078 128.521 126.511 128.521Z" fill="#D4B092"/>
<path d="M53.0313 84.2036H42.1087C37.7396 84.2036 34.165 88.6354 34.165 94.052C34.165 99.4686 37.7396 103.9 42.1087 103.9H53.0313C57.4003 103.9 60.975 99.4686 60.975 94.052C60.975 88.6354 57.5989 84.2036 53.0313 84.2036Z" fill="#D4B092"/>
<path d="M53.0313 128.521H42.1087C37.7396 128.521 34.165 132.953 34.165 138.37C34.165 143.786 37.7396 148.218 42.1087 148.218H53.0313C57.4003 148.218 60.975 143.786 60.975 138.37C60.975 132.953 57.5989 128.521 53.0313 128.521Z" fill="#D4B092"/>
</svg>
